<svg width="76" height="65" viewBox="0 0 76 65" fill="none" xmlns="http://www.w3.org/2000/svg">
<path d="M7.40462 20.3464C5.44533 20.3464 3.5663 21.1206 2.18088 22.4987C0.795451 23.8767 0.0171288 25.7458 0.0171288 27.6947L0 38.7731C0 40.7222 0.782384 42.5914 2.17503 43.9696C3.56768 45.3478 5.45652 46.1221 7.42602 46.1221L13.6847 46.1076C14.9841 46.1076 16.2307 45.5984 17.1518 44.6914C18.0729 43.7844 18.5936 42.5533 18.6001 41.2674V33.2214C18.5997 32.7364 18.4047 32.2715 18.058 31.9287C17.8567 31.7296 17.6137 31.5812 17.3494 31.4918L16.4992 31.3934H12.0799C11.8711 31.3934 11.7275 31.603 11.8028 31.7976L12.9967 34.8852C13.0409 34.9997 13.151 35.0752 13.2738 35.0752H14.612C14.7761 35.0752 14.9091 35.2082 14.9091 35.3723V40.5914C14.9049 41.0734 14.71 41.5345 14.3662 41.8759C14.0224 42.2173 13.5571 42.4119 13.0701 42.4177C11.1941 42.4479 9.31697 42.4403 7.44069 42.4403C4.98383 42.4129 3.72687 40.4349 3.72687 38.0035L3.72466 28.4642C3.72466 26.033 4.9751 24.0552 7.41921 24.0278L16.8322 24.0402C16.9498 24.0404 17.0565 23.9711 17.1042 23.8634L18.4752 20.7676C18.5621 20.5713 18.4186 20.3504 18.2039 20.3502C14.6041 20.3464 11.0043 20.3465 7.40462 20.3464Z" fill="white"></path>
<path fill-rule="evenodd" clip-rule="evenodd" d="M38.0768 46.1071C35.9251 46.1071 33.9977 44.8418 33.634 42.8434L31.2392 24.4127C31.2392 24.4127 31.2392 23.1892 30.0358 23.1892C28.8325 23.1892 28.8325 24.3692 28.8325 24.3692L27.3494 45.8182C27.3381 45.9808 27.2013 46.1071 27.0362 46.1071H23.7273C23.5452 46.1071 23.4013 45.9547 23.4141 45.7753L24.9709 23.9139C25.1579 21.7448 27.0445 19.3682 30.0477 19.3682C33.4249 19.3682 35.0107 22.2888 35.0974 23.8537L37.3188 41.5948C37.3404 41.7779 37.4296 41.9467 37.5693 42.0693C37.7091 42.1919 37.8897 42.2596 38.0768 42.2596C38.264 42.2596 38.4446 42.1919 38.5844 42.0693C38.7241 41.9467 38.8133 41.7779 38.8349 41.5948L41.058 23.8537C41.1515 22.2921 42.7304 19.3682 46.1059 19.3682C49.1126 19.3682 50.9975 21.7448 51.1794 23.9139L52.8253 45.7741C52.8388 45.9539 52.6947 46.1071 52.5122 46.1071H49.3655C49.2018 46.1071 49.0655 45.9829 49.0525 45.8217L47.3229 24.3692C47.3229 24.3692 47.3229 23.1976 46.1178 23.1976C44.9128 23.1976 44.9145 24.421 44.9145 24.421L42.5197 42.8434C42.1526 44.8418 40.2303 46.1071 38.0768 46.1071Z" fill="white"></path>
<path d="M70.3673 20.2595C72.8306 20.2595 74.8276 22.2548 74.8276 24.716V27.8487C74.8276 29.3334 74.2103 31.0442 73.1358 32.0504C72.9158 32.2564 72.6595 32.4182 72.3948 32.5625L61.4902 38.5085C61.2843 38.6208 61.0838 38.7457 60.9168 38.9101C60.308 39.5096 59.9598 40.0314 59.9598 40.8952C59.9598 41.0716 59.9598 41.7299 59.9598 42.1127C59.9598 42.2679 60.0856 42.3934 60.2409 42.3934H74.3394C74.4557 42.3934 74.5613 42.4611 74.6098 42.5667L75.9726 45.6863C76.0629 45.8831 75.919 46.1072 75.7023 46.1072H58.473C57.3234 46.1072 56.3915 45.176 56.3915 44.0275V41.3522C56.3915 39.3314 57.2148 37.4087 58.6538 36.0166C58.9852 35.6959 59.3786 35.4492 59.7857 35.2323L69.8125 29.8884C70.962 29.1725 71.2593 27.75 71.2593 26.5785V26.2015C71.2593 24.8888 70.1835 23.9733 68.8696 23.9733H59.712C59.5919 23.9733 59.4837 23.9011 59.4375 23.7904L58.1985 20.6709C58.1169 20.4752 58.2608 20.2595 58.473 20.2595H70.3673Z" fill="white"></path>
<path d="M65.126 45.7284C60.2982 55.8059 49.9665 62.77 38.0002 62.77C26.0333 62.77 15.7011 55.8052 10.8736 45.7268C15.4606 56.9599 25.8804 64.8031 38.0001 64.8031C50.1193 64.8031 60.5386 56.9607 65.126 45.7284Z" fill="url(#paint0_linear_4041_188)"></path>
<path d="M65.1258 20.0375C60.298 9.96017 49.9664 2.99624 38.0002 2.99624C26.0334 2.99623 15.7013 9.96091 10.8738 20.0391C15.4608 8.80621 25.8805 0.963137 38.0002 0.96314C50.1192 0.963142 60.5384 8.80546 65.1258 20.0375Z" fill="url(#paint1_linear_4041_188)"></path>
<defs>
<linearGradient id="paint0_linear_4041_188" x1="65.126" y1="0.963144" x2="-2.18462" y2="44.7122" gradientUnits="userSpaceOnUse">
<stop stop-color="#FF5900"></stop>
<stop offset="0.494792" stop-color="#E968FE"></stop>
<stop offset="1" stop-color="#602EE1"></stop>
</linearGradient>
<linearGradient id="paint1_linear_4041_188" x1="65.126" y1="0.963144" x2="-2.18462" y2="44.7122" gradientUnits="userSpaceOnUse">
<stop stop-color="#FF5900"></stop>
<stop offset="0.494792" stop-color="#E968FE"></stop>
<stop offset="1" stop-color="#602EE1"></stop>
</linearGradient>
</defs>
</svg>